<svg width="512" height="512" viewBox="0 0 100 100" fill="none" xmlns="http://www.w3.org/2000/svg">
  <defs>
    <linearGradient id="logoGrad" x1="0" y1="0" x2="100" y2="100" gradientUnits="userSpaceOnUse">
      <stop offset="0%" stop-color="#14B8A6"/>
      <stop offset="100%" stop-color="#4F46E5"/>
    </linearGradient>
  </defs>
  <rect width="100" height="100" rx="22" fill="url(#logoGrad)"/>
  <path d="M75.5 24.5a2.5 2.5 0 00-2.67-.56l-45 17.5a2.5 2.5 0 00.18 4.69l20.06 6.68 6.68 20.06a2.5 2.5 0 004.69.18l17.5-45a2.5 2.5 0 00-.56-2.67zM65.66 34.34l-19.68 19.68-13.16-4.39L65.66 34.34zM50.37 65.17l-4.39-13.16 19.68-19.68L50.37 65.17z" fill="white"/>
  <circle cx="78" cy="22" r="5" fill="#FBBF24"/>
</svg>
