<svg width="1080" height="1920" viewBox="0 0 1080 1920" xmlns="http://www.w3.org/2000/svg">
<defs>
  <linearGradient id="bg" x1="0" y1="0" x2="1080" y2="1920" gradientUnits="userSpaceOnUse">
    <stop offset="0" stop-color="#0EA5A0"/><stop offset="1" stop-color="#4F46E5"/>
  </linearGradient>
</defs>
<rect width="1080" height="1920" fill="url(#bg)"/>
<circle cx="980" cy="260" r="340" fill="#fff" opacity="0.06"/>
<circle cx="80" cy="1650" r="360" fill="#fff" opacity="0.05"/>
<g transform="translate(380,150) scale(1)">
    <path d="M75.5 24.5a2.5 2.5 0 00-2.67-.56l-45 17.5a2.5 2.5 0 00.18 4.69l20.06 6.68 6.68 20.06a2.5 2.5 0 004.69.18l17.5-45a2.5 2.5 0 00-.56-2.67zM65.66 34.34l-19.68 19.68-13.16-4.39L65.66 34.34zM50.37 65.17l-4.39-13.16 19.68-19.68L50.37 65.17z" fill="#fff"/>
    <circle cx="78" cy="22" r="7" fill="#FBBF24"/>
  </g>
<text x="540" y="370" text-anchor="middle" font-family="'Segoe UI', 'Helvetica Neue', Arial, sans-serif" font-size="72" font-weight="800" fill="#fff">Prepfly</text>
<rect x="380" y="410" width="320" height="60" rx="30" fill="#FBBF24"/>
<text x="540" y="450" text-anchor="middle" font-family="'Segoe UI', 'Helvetica Neue', Arial, sans-serif" font-size="28" font-weight="800" fill="#1f2937">FREE DURING BETA</text>

<text x="540" y="700" text-anchor="middle" font-family="'Segoe UI', 'Helvetica Neue', Arial, sans-serif" font-size="92" font-weight="700" fill="#fff">Score</text>
<text x="540" y="980" text-anchor="middle" font-family="'Segoe UI', 'Helvetica Neue', Arial, sans-serif" font-size="300" font-weight="900" fill="#FBBF24">79+</text>
<text x="540" y="1080" text-anchor="middle" font-family="'Segoe UI', 'Helvetica Neue', Arial, sans-serif" font-size="70" font-weight="700" fill="#fff">in PTE Academic</text>

<circle cx="250.24" cy="1265.832" r="20.240000000000002" fill="#FBBF24"/>
    <path d="M240.12 1264.82 l7.0840000000000005 8.096000000000002 l14.168000000000001 -18.216" stroke="#1f2937" stroke-width="5.667200000000001" fill="none" stroke-linecap="round" stroke-linejoin="round"/>
    <text x="282.624" y="1280" font-family="'Segoe UI', 'Helvetica Neue', Arial, sans-serif" font-size="44" font-weight="600" fill="#fff">AI Speaking &amp; Writing scoring</text>
<circle cx="250.24" cy="1355.832" r="20.240000000000002" fill="#FBBF24"/>
    <path d="M240.12 1354.82 l7.0840000000000005 8.096000000000002 l14.168000000000001 -18.216" stroke="#1f2937" stroke-width="5.667200000000001" fill="none" stroke-linecap="round" stroke-linejoin="round"/>
    <text x="282.624" y="1370" font-family="'Segoe UI', 'Helvetica Neue', Arial, sans-serif" font-size="44" font-weight="600" fill="#fff">All 20+ question types</text>
<circle cx="250.24" cy="1445.832" r="20.240000000000002" fill="#FBBF24"/>
    <path d="M240.12 1444.82 l7.0840000000000005 8.096000000000002 l14.168000000000001 -18.216" stroke="#1f2937" stroke-width="5.667200000000001" fill="none" stroke-linecap="round" stroke-linejoin="round"/>
    <text x="282.624" y="1460" font-family="'Segoe UI', 'Helvetica Neue', Arial, sans-serif" font-size="44" font-weight="600" fill="#fff">Full timed mock tests</text>
<circle cx="250.24" cy="1535.832" r="20.240000000000002" fill="#FBBF24"/>
    <path d="M240.12 1534.82 l7.0840000000000005 8.096000000000002 l14.168000000000001 -18.216" stroke="#1f2937" stroke-width="5.667200000000001" fill="none" stroke-linecap="round" stroke-linejoin="round"/>
    <text x="282.624" y="1550" font-family="'Segoe UI', 'Helvetica Neue', Arial, sans-serif" font-size="44" font-weight="600" fill="#fff">Predictions, vocab &amp; analytics</text>

<rect x="160" y="1700" width="760" height="96" rx="48" fill="#fff"/>
    <text x="540" y="1761.3" text-anchor="middle" font-family="'Segoe UI', 'Helvetica Neue', Arial, sans-serif" font-size="38" font-weight="800" fill="#4F46E5">Start free  →  getprepfly.com</text>
<text x="540" y="1850" text-anchor="middle" font-family="'Segoe UI', 'Helvetica Neue', Arial, sans-serif" font-size="30" font-weight="600" fill="#e0e7ff">Speaking · Writing · Reading · Listening</text>
</svg>